# MagicaVoxel @ Ephtracy

# group
g Car

# material
mtllib Car.mtl
usemtl palette

# normals
vn -1 0 0
vn 1 0 0
vn 0 0 1
vn 0 0 -1
vn 0 -1 0
vn 0 1 0

# texcoords
vt 0.728516 0.5
vt 0.951172 0.5
vt 0.958984 0.5
vt 0.966797 0.5

# verts
v -8 1 11
v -8 1 10
v -8 1 7
v -8 1 6
v -8 3 11
v -8 3 10
v -8 3 7
v -8 3 6
v -7 0 11
v -7 0 10
v -7 0 7
v -7 0 6
v -7 1 11
v -7 1 10
v -7 1 7
v -7 1 6
v -7 3 11
v -7 3 10
v -7 3 7
v -7 3 6
v -7 4 11
v -7 4 10
v -7 4 7
v -7 4 6
v -6 1 10
v -6 1 7
v -6 3 10
v -6 3 7
v -5 3 10
v -5 3 7
v -5 4 10
v -5 4 7
v -5 5 10
v -5 5 7
v -4 5 10
v -4 5 7
v -4 6 10
v -4 6 7
v -3 6 10
v -3 6 7
v -3 7 10
v -3 7 7
v -3 8 9
v -3 8 8
v -3 9 9
v -3 9 8
v -2 7 9
v -2 7 8
v -2 8 10
v -2 8 9
v -2 8 8
v -2 8 7
v -2 9 10
v -2 9 9
v -2 9 8
v -2 9 7
v -2 10 9
v -2 10 8
v 0 1 11
v 0 1 10
v 0 1 7
v 0 1 6
v 0 3 11
v 0 3 10
v 0 3 7
v 0 3 6
v 1 0 11
v 1 0 10
v 1 0 7
v 1 0 6
v 1 1 11
v 1 1 10
v 1 1 7
v 1 1 6
v 1 3 11
v 1 3 10
v 1 3 7
v 1 3 6
v 1 4 11
v 1 4 10
v 1 4 7
v 1 4 6
v -5 0 11
v -5 0 10
v -5 0 7
v -5 0 6
v -5 1 11
v -5 1 10
v -5 1 7
v -5 1 6
v -5 3 11
v -5 3 10
v -5 3 7
v -5 3 6
v -5 4 11
v -5 4 10
v -5 4 7
v -5 4 6
v -4 1 11
v -4 1 10
v -4 1 7
v -4 1 6
v -4 3 11
v -4 3 10
v -4 3 7
v -4 3 6
v -1 7 9
v -1 7 8
v -1 8 10
v -1 8 9
v -1 8 8
v -1 8 7
v -1 9 10
v -1 9 9
v -1 9 8
v -1 9 7
v -1 10 9
v -1 10 8
v 0 6 10
v 0 6 7
v 0 7 10
v 0 7 7
v 0 8 9
v 0 8 8
v 0 9 9
v 0 9 8
v 1 5 10
v 1 5 7
v 1 6 10
v 1 6 7
v 2 3 10
v 2 3 7
v 2 4 10
v 2 4 7
v 2 5 10
v 2 5 7
v 3 0 11
v 3 0 10
v 3 0 7
v 3 0 6
v 3 1 11
v 3 1 10
v 3 1 7
v 3 1 6
v 3 3 11
v 3 3 10
v 3 3 7
v 3 3 6
v 3 4 11
v 3 4 10
v 3 4 7
v 3 4 6
v 4 1 11
v 4 1 10
v 4 1 7
v 4 1 6
v 4 3 11
v 4 3 10
v 4 3 7
v 4 3 6
v -8 1 11
v -8 3 11
v -7 0 11
v -7 1 11
v -7 3 11
v -7 4 11
v -5 0 11
v -5 1 11
v -5 3 11
v -5 4 11
v -4 1 11
v -4 3 11
v 0 1 11
v 0 3 11
v 1 0 11
v 1 1 11
v 1 3 11
v 1 4 11
v 3 0 11
v 3 1 11
v 3 3 11
v 3 4 11
v 4 1 11
v 4 3 11
v -5 3 10
v -5 4 10
v -5 5 10
v -4 1 10
v -4 3 10
v -4 5 10
v -4 6 10
v -3 4 10
v -3 5 10
v -3 6 10
v -3 7 10
v -2 8 10
v -2 9 10
v -1 8 10
v -1 9 10
v 0 1 10
v 0 3 10
v 0 4 10
v 0 5 10
v 0 6 10
v 0 7 10
v 1 3 10
v 1 4 10
v 1 5 10
v 1 6 10
v 2 4 10
v 2 5 10
v -3 8 9
v -3 9 9
v -2 7 9
v -2 8 9
v -2 9 9
v -2 10 9
v -1 7 9
v -1 8 9
v -1 9 9
v -1 10 9
v 0 8 9
v 0 9 9
v -8 1 7
v -8 3 7
v -7 0 7
v -7 1 7
v -7 3 7
v -7 4 7
v -6 1 7
v -6 3 7
v -5 0 7
v -5 1 7
v -5 3 7
v -5 4 7
v 1 0 7
v 1 1 7
v 2 3 7
v 2 4 7
v 3 0 7
v 3 1 7
v 3 3 7
v 3 4 7
v 4 1 7
v 4 3 7
v -8 1 10
v -8 3 10
v -7 0 10
v -7 1 10
v -7 3 10
v -7 4 10
v -6 1 10
v -6 3 10
v -5 0 10
v -5 1 10
v -5 3 10
v -5 4 10
v 1 0 10
v 1 1 10
v 2 3 10
v 2 4 10
v 3 0 10
v 3 1 10
v 3 3 10
v 3 4 10
v 4 1 10
v 4 3 10
v -3 8 8
v -3 9 8
v -2 7 8
v -2 8 8
v -2 9 8
v -2 10 8
v -1 7 8
v -1 8 8
v -1 9 8
v -1 10 8
v 0 8 8
v 0 9 8
v -5 3 7
v -5 4 7
v -5 5 7
v -4 1 7
v -4 3 7
v -4 5 7
v -4 6 7
v -3 4 7
v -3 5 7
v -3 6 7
v -3 7 7
v -2 8 7
v -2 9 7
v -1 8 7
v -1 9 7
v 0 1 7
v 0 3 7
v 0 4 7
v 0 5 7
v 0 6 7
v 0 7 7
v 1 3 7
v 1 4 7
v 1 5 7
v 1 6 7
v 2 4 7
v 2 5 7
v -8 1 6
v -8 3 6
v -7 0 6
v -7 1 6
v -7 3 6
v -7 4 6
v -5 0 6
v -5 1 6
v -5 3 6
v -5 4 6
v -4 1 6
v -4 3 6
v 0 1 6
v 0 3 6
v 1 0 6
v 1 1 6
v 1 3 6
v 1 4 6
v 3 0 6
v 3 1 6
v 3 3 6
v 3 4 6
v 4 1 6
v 4 3 6
v -7 0 11
v -5 0 11
v 1 0 11
v 3 0 11
v -7 0 10
v -5 0 10
v 1 0 10
v 3 0 10
v -7 0 7
v -5 0 7
v 1 0 7
v 3 0 7
v -7 0 6
v -5 0 6
v 1 0 6
v 3 0 6
v -8 1 11
v -7 1 11
v -5 1 11
v -4 1 11
v 0 1 11
v 1 1 11
v 3 1 11
v 4 1 11
v -8 1 10
v -7 1 10
v -6 1 10
v -5 1 10
v -4 1 10
v 0 1 10
v 1 1 10
v 3 1 10
v 4 1 10
v -8 1 7
v -7 1 7
v -6 1 7
v -5 1 7
v -4 1 7
v 0 1 7
v 1 1 7
v 3 1 7
v 4 1 7
v -8 1 6
v -7 1 6
v -5 1 6
v -4 1 6
v 0 1 6
v 1 1 6
v 3 1 6
v 4 1 6
v -2 8 10
v -1 8 10
v -3 8 9
v -2 8 9
v -1 8 9
v 0 8 9
v -3 8 8
v -2 8 8
v -1 8 8
v 0 8 8
v -2 8 7
v -1 8 7
v -8 3 11
v -7 3 11
v -5 3 11
v -4 3 11
v 0 3 11
v 1 3 11
v 3 3 11
v 4 3 11
v -8 3 10
v -7 3 10
v -6 3 10
v -5 3 10
v -4 3 10
v 0 3 10
v 1 3 10
v 2 3 10
v 3 3 10
v 4 3 10
v -8 3 7
v -7 3 7
v -6 3 7
v -5 3 7
v -4 3 7
v 0 3 7
v 1 3 7
v 2 3 7
v 3 3 7
v 4 3 7
v -8 3 6
v -7 3 6
v -5 3 6
v -4 3 6
v 0 3 6
v 1 3 6
v 3 3 6
v 4 3 6
v -7 4 11
v -5 4 11
v 1 4 11
v 3 4 11
v -7 4 10
v -5 4 10
v 1 4 10
v 2 4 10
v 3 4 10
v -7 4 7
v -5 4 7
v 1 4 7
v 2 4 7
v 3 4 7
v -7 4 6
v -5 4 6
v 1 4 6
v 3 4 6
v -5 5 10
v -4 5 10
v 1 5 10
v 2 5 10
v -5 5 7
v -4 5 7
v 1 5 7
v 2 5 7
v -4 6 10
v -3 6 10
v 0 6 10
v 1 6 10
v -4 6 7
v -3 6 7
v 0 6 7
v 1 6 7
v -3 7 10
v 0 7 10
v -2 7 9
v -1 7 9
v -2 7 8
v -1 7 8
v -3 7 7
v 0 7 7
v -2 9 10
v -1 9 10
v -3 9 9
v -2 9 9
v -1 9 9
v 0 9 9
v -3 9 8
v -2 9 8
v -1 9 8
v 0 9 8
v -2 9 7
v -1 9 7
v -2 10 9
v -1 10 9
v -2 10 8
v -1 10 8

# faces
f 5/2/1 2/2/1 1/2/1
f 6/2/1 2/2/1 5/2/1
f 7/2/1 4/2/1 3/2/1
f 8/2/1 4/2/1 7/2/1
f 13/2/1 10/2/1 9/2/1
f 14/2/1 10/2/1 13/2/1
f 15/2/1 12/2/1 11/2/1
f 16/2/1 12/2/1 15/2/1
f 21/2/1 18/2/1 17/2/1
f 22/2/1 18/2/1 21/2/1
f 23/2/1 20/2/1 19/2/1
f 24/2/1 20/2/1 23/2/1
f 27/4/1 26/4/1 25/4/1
f 28/4/1 26/4/1 27/4/1
f 31/4/1 30/4/1 29/4/1
f 32/4/1 30/4/1 31/4/1
f 33/4/1 32/4/1 31/4/1
f 34/4/1 32/4/1 33/4/1
f 37/4/1 36/4/1 35/4/1
f 38/4/1 36/4/1 37/4/1
f 41/1/1 40/1/1 39/1/1
f 42/1/1 40/1/1 41/1/1
f 45/1/1 44/1/1 43/1/1
f 46/1/1 44/1/1 45/1/1
f 50/1/1 48/1/1 47/1/1
f 51/1/1 48/1/1 50/1/1
f 53/1/1 50/1/1 49/1/1
f 54/1/1 50/1/1 53/1/1
f 55/1/1 52/1/1 51/1/1
f 56/1/1 52/1/1 55/1/1
f 57/1/1 55/1/1 54/1/1
f 58/1/1 55/1/1 57/1/1
f 63/2/1 60/2/1 59/2/1
f 64/2/1 60/2/1 63/2/1
f 65/2/1 62/2/1 61/2/1
f 66/2/1 62/2/1 65/2/1
f 71/2/1 68/2/1 67/2/1
f 72/2/1 68/2/1 71/2/1
f 73/2/1 70/2/1 69/2/1
f 74/2/1 70/2/1 73/2/1
f 79/2/1 76/2/1 75/2/1
f 80/2/1 76/2/1 79/2/1
f 81/2/1 78/2/1 77/2/1
f 82/2/1 78/2/1 81/2/1
f 83/2/2 84/2/2 87/2/2
f 87/2/2 84/2/2 88/2/2
f 85/2/2 86/2/2 89/2/2
f 89/2/2 86/2/2 90/2/2
f 91/2/2 92/2/2 95/2/2
f 95/2/2 92/2/2 96/2/2
f 93/2/2 94/2/2 97/2/2
f 97/2/2 94/2/2 98/2/2
f 99/2/2 100/2/2 103/2/2
f 103/2/2 100/2/2 104/2/2
f 101/2/2 102/2/2 105/2/2
f 105/2/2 102/2/2 106/2/2
f 107/1/2 108/1/2 110/1/2
f 110/1/2 108/1/2 111/1/2
f 109/1/2 110/1/2 113/1/2
f 113/1/2 110/1/2 114/1/2
f 111/1/2 112/1/2 115/1/2
f 115/1/2 112/1/2 116/1/2
f 114/1/2 115/1/2 117/1/2
f 117/1/2 115/1/2 118/1/2
f 119/1/2 120/1/2 121/1/2
f 121/1/2 120/1/2 122/1/2
f 123/1/2 124/1/2 125/1/2
f 125/1/2 124/1/2 126/1/2
f 127/4/2 128/4/2 129/4/2
f 129/4/2 128/4/2 130/4/2
f 131/4/2 132/4/2 133/4/2
f 133/4/2 132/4/2 134/4/2
f 133/4/2 134/4/2 135/4/2
f 135/4/2 134/4/2 136/4/2
f 137/2/2 138/2/2 141/2/2
f 141/2/2 138/2/2 142/2/2
f 139/2/2 140/2/2 143/2/2
f 143/2/2 140/2/2 144/2/2
f 142/4/2 143/4/2 146/4/2
f 146/4/2 143/4/2 147/4/2
f 145/2/2 146/2/2 149/2/2
f 149/2/2 146/2/2 150/2/2
f 147/2/2 148/2/2 151/2/2
f 151/2/2 148/2/2 152/2/2
f 153/2/2 154/2/2 157/2/2
f 157/2/2 154/2/2 158/2/2
f 155/2/2 156/2/2 159/2/2
f 159/2/2 156/2/2 160/2/2
f 164/2/3 162/2/3 161/2/3
f 165/2/3 162/2/3 164/2/3
f 167/2/3 164/2/3 163/2/3
f 168/3/3 165/3/3 164/3/3
f 168/2/3 164/2/3 167/2/3
f 169/2/3 166/2/3 165/2/3
f 169/3/3 165/3/3 168/3/3
f 170/2/3 166/2/3 169/2/3
f 171/2/3 169/2/3 168/2/3
f 172/2/3 169/2/3 171/2/3
f 176/2/3 174/2/3 173/2/3
f 177/2/3 174/2/3 176/2/3
f 179/2/3 176/2/3 175/2/3
f 180/3/3 177/3/3 176/3/3
f 180/2/3 176/2/3 179/2/3
f 181/2/3 178/2/3 177/2/3
f 181/3/3 177/3/3 180/3/3
f 182/2/3 178/2/3 181/2/3
f 183/2/3 181/2/3 180/2/3
f 184/2/3 181/2/3 183/2/3
f 189/4/3 186/4/3 185/4/3
f 189/4/3 187/4/3 186/4/3
f 190/4/3 187/4/3 189/4/3
f 192/4/3 189/4/3 188/4/3
f 192/4/3 191/4/3 190/4/3
f 192/4/3 190/4/3 189/4/3
f 193/4/3 191/4/3 192/4/3
f 194/4/3 191/4/3 193/4/3
f 198/1/3 197/1/3 196/1/3
f 199/1/3 197/1/3 198/1/3
f 200/4/3 192/4/3 188/4/3
f 201/4/3 192/4/3 200/4/3
f 202/2/3 193/2/3 192/2/3
f 202/4/3 192/4/3 201/4/3
f 203/4/3 194/4/3 193/4/3
f 203/2/3 193/2/3 202/2/3
f 204/1/3 195/1/3 194/1/3
f 204/4/3 194/4/3 203/4/3
f 205/1/3 195/1/3 204/1/3
f 206/4/3 202/4/3 201/4/3
f 206/4/3 204/4/3 203/4/3
f 206/4/3 203/4/3 202/4/3
f 207/4/3 204/4/3 206/4/3
f 208/4/3 204/4/3 207/4/3
f 209/4/3 204/4/3 208/4/3
f 210/4/3 208/4/3 207/4/3
f 211/4/3 208/4/3 210/4/3
f 215/1/3 213/1/3 212/1/3
f 216/1/3 213/1/3 215/1/3
f 218/1/3 215/1/3 214/1/3
f 219/1/3 215/1/3 218/1/3
f 220/1/3 217/1/3 216/1/3
f 221/1/3 217/1/3 220/1/3
f 222/1/3 220/1/3 219/1/3
f 223/1/3 220/1/3 222/1/3
f 227/2/3 225/2/3 224/2/3
f 228/2/3 225/2/3 227/2/3
f 230/2/3 227/2/3 226/2/3
f 230/3/3 228/3/3 227/3/3
f 231/2/3 229/2/3 228/2/3
f 231/3/3 228/3/3 230/3/3
f 232/2/3 230/2/3 226/2/3
f 233/2/3 230/2/3 232/2/3
f 234/2/3 229/2/3 231/2/3
f 235/2/3 229/2/3 234/2/3
f 240/2/3 237/2/3 236/2/3
f 241/2/3 237/2/3 240/2/3
f 242/2/3 239/2/3 238/2/3
f 243/2/3 239/2/3 242/2/3
f 244/2/3 242/2/3 241/2/3
f 245/2/3 242/2/3 244/2/3
f 246/2/4 247/2/4 249/2/4
f 249/2/4 247/2/4 250/2/4
f 248/2/4 249/2/4 252/2/4
f 249/3/4 250/3/4 252/3/4
f 250/2/4 251/2/4 253/2/4
f 252/3/4 250/3/4 253/3/4
f 248/2/4 252/2/4 254/2/4
f 254/2/4 252/2/4 255/2/4
f 253/2/4 251/2/4 256/2/4
f 256/2/4 251/2/4 257/2/4
f 258/2/4 259/2/4 262/2/4
f 262/2/4 259/2/4 263/2/4
f 260/2/4 261/2/4 264/2/4
f 264/2/4 261/2/4 265/2/4
f 263/2/4 264/2/4 266/2/4
f 266/2/4 264/2/4 267/2/4
f 268/1/4 269/1/4 271/1/4
f 271/1/4 269/1/4 272/1/4
f 270/1/4 271/1/4 274/1/4
f 274/1/4 271/1/4 275/1/4
f 272/1/4 273/1/4 276/1/4
f 276/1/4 273/1/4 277/1/4
f 275/1/4 276/1/4 278/1/4
f 278/1/4 276/1/4 279/1/4
f 280/4/4 281/4/4 284/4/4
f 281/4/4 282/4/4 284/4/4
f 284/4/4 282/4/4 285/4/4
f 283/4/4 284/4/4 287/4/4
f 285/4/4 286/4/4 287/4/4
f 284/4/4 285/4/4 287/4/4
f 287/4/4 286/4/4 288/4/4
f 288/4/4 286/4/4 289/4/4
f 291/1/4 292/1/4 293/1/4
f 293/1/4 292/1/4 294/1/4
f 283/4/4 287/4/4 295/4/4
f 295/4/4 287/4/4 296/4/4
f 287/2/4 288/2/4 297/2/4
f 296/4/4 287/4/4 297/4/4
f 288/4/4 289/4/4 298/4/4
f 297/2/4 288/2/4 298/2/4
f 289/1/4 290/1/4 299/1/4
f 298/4/4 289/4/4 299/4/4
f 299/1/4 290/1/4 300/1/4
f 296/4/4 297/4/4 301/4/4
f 298/4/4 299/4/4 301/4/4
f 297/4/4 298/4/4 301/4/4
f 301/4/4 299/4/4 302/4/4
f 302/4/4 299/4/4 303/4/4
f 303/4/4 299/4/4 304/4/4
f 302/4/4 303/4/4 305/4/4
f 305/4/4 303/4/4 306/4/4
f 307/2/4 308/2/4 310/2/4
f 310/2/4 308/2/4 311/2/4
f 309/2/4 310/2/4 313/2/4
f 310/3/4 311/3/4 314/3/4
f 313/2/4 310/2/4 314/2/4
f 311/2/4 312/2/4 315/2/4
f 314/3/4 311/3/4 315/3/4
f 315/2/4 312/2/4 316/2/4
f 314/2/4 315/2/4 317/2/4
f 317/2/4 315/2/4 318/2/4
f 319/2/4 320/2/4 322/2/4
f 322/2/4 320/2/4 323/2/4
f 321/2/4 322/2/4 325/2/4
f 322/3/4 323/3/4 326/3/4
f 325/2/4 322/2/4 326/2/4
f 323/2/4 324/2/4 327/2/4
f 326/3/4 323/3/4 327/3/4
f 327/2/4 324/2/4 328/2/4
f 326/2/4 327/2/4 329/2/4
f 329/2/4 327/2/4 330/2/4
f 335/2/5 332/2/5 331/2/5
f 336/2/5 332/2/5 335/2/5
f 337/2/5 334/2/5 333/2/5
f 338/2/5 334/2/5 337/2/5
f 343/2/5 340/2/5 339/2/5
f 344/2/5 340/2/5 343/2/5
f 345/2/5 342/2/5 341/2/5
f 346/2/5 342/2/5 345/2/5
f 355/2/5 348/2/5 347/2/5
f 356/2/5 348/2/5 355/2/5
f 358/2/5 350/2/5 349/2/5
f 359/2/5 350/2/5 358/2/5
f 360/2/5 352/2/5 351/2/5
f 361/2/5 352/2/5 360/2/5
f 362/2/5 354/2/5 353/2/5
f 363/2/5 354/2/5 362/2/5
f 366/4/5 361/4/5 360/4/5
f 366/4/5 359/4/5 358/4/5
f 366/4/5 362/4/5 361/4/5
f 366/4/5 358/4/5 357/4/5
f 366/4/5 360/4/5 359/4/5
f 367/4/5 362/4/5 366/4/5
f 368/4/5 362/4/5 367/4/5
f 369/4/5 362/4/5 368/4/5
f 370/4/5 362/4/5 369/4/5
f 371/4/5 362/4/5 370/4/5
f 373/2/5 365/2/5 364/2/5
f 374/2/5 365/2/5 373/2/5
f 375/2/5 368/2/5 367/2/5
f 376/2/5 368/2/5 375/2/5
f 377/2/5 370/2/5 369/2/5
f 378/2/5 370/2/5 377/2/5
f 379/2/5 372/2/5 371/2/5
f 380/2/5 372/2/5 379/2/5
f 384/1/5 382/1/5 381/1/5
f 385/1/5 382/1/5 384/1/5
f 387/1/5 384/1/5 383/1/5
f 388/1/5 384/1/5 387/1/5
f 389/1/5 386/1/5 385/1/5
f 390/1/5 386/1/5 389/1/5
f 391/1/5 389/1/5 388/1/5
f 392/1/5 389/1/5 391/1/5
f 393/2/6 394/2/6 401/2/6
f 401/2/6 394/2/6 402/2/6
f 395/2/6 396/2/6 404/2/6
f 404/2/6 396/2/6 405/2/6
f 397/2/6 398/2/6 406/2/6
f 406/2/6 398/2/6 407/2/6
f 399/2/6 400/2/6 409/2/6
f 409/2/6 400/2/6 410/2/6
f 403/4/6 404/4/6 413/4/6
f 413/4/6 404/4/6 414/4/6
f 408/4/6 409/4/6 418/4/6
f 418/4/6 409/4/6 419/4/6
f 411/2/6 412/2/6 421/2/6
f 421/2/6 412/2/6 422/2/6
f 414/2/6 415/2/6 423/2/6
f 423/2/6 415/2/6 424/2/6
f 416/2/6 417/2/6 425/2/6
f 425/2/6 417/2/6 426/2/6
f 419/2/6 420/2/6 427/2/6
f 427/2/6 420/2/6 428/2/6
f 429/2/6 430/2/6 433/2/6
f 433/2/6 430/2/6 434/2/6
f 431/2/6 432/2/6 435/2/6
f 435/2/6 432/2/6 436/2/6
f 436/2/6 432/2/6 437/2/6
f 438/2/6 439/2/6 443/2/6
f 443/2/6 439/2/6 444/2/6
f 441/2/6 442/2/6 445/2/6
f 440/2/6 441/2/6 445/2/6
f 445/2/6 442/2/6 446/2/6
f 447/4/6 448/4/6 451/4/6
f 451/4/6 448/4/6 452/4/6
f 449/4/6 450/4/6 453/4/6
f 453/4/6 450/4/6 454/4/6
f 455/4/6 456/4/6 459/4/6
f 459/4/6 456/4/6 460/4/6
f 457/4/6 458/4/6 461/4/6
f 461/4/6 458/4/6 462/4/6
f 463/1/6 464/1/6 465/1/6
f 465/1/6 464/1/6 466/1/6
f 463/1/6 465/1/6 467/1/6
f 466/1/6 464/1/6 468/1/6
f 463/1/6 467/1/6 469/1/6
f 467/1/6 468/1/6 469/1/6
f 468/1/6 464/1/6 470/1/6
f 469/1/6 468/1/6 470/1/6
f 471/1/6 472/1/6 474/1/6
f 474/1/6 472/1/6 475/1/6
f 473/1/6 474/1/6 477/1/6
f 477/1/6 474/1/6 478/1/6
f 475/1/6 476/1/6 479/1/6
f 479/1/6 476/1/6 480/1/6
f 478/1/6 479/1/6 481/1/6
f 481/1/6 479/1/6 482/1/6
f 483/1/6 484/1/6 485/1/6
f 485/1/6 484/1/6 486/1/6
