# MagicaVoxel @ Ephtracy

# group
g llama

# material
mtllib llama.mtl
usemtl palette

# normals
vn -1 0 0
vn 1 0 0
vn 0 0 1
vn 0 0 -1
vn 0 -1 0
vn 0 1 0

# texcoords
vt 0.0253906 0.5
vt 0.138672 0.5
vt 0.958984 0.5

# verts
v -14 21 3
v -14 21 1
v -14 23 3
v -14 23 1
v -13 21 4
v -13 21 3
v -13 21 1
v -13 21 -0
v -13 23 4
v -13 23 3
v -13 23 1
v -13 23 -0
v -13 24 3
v -13 24 1
v -12 23 4
v -12 23 3
v -12 23 1
v -12 23 -0
v -12 24 3
v -12 24 1
v -12 25 4
v -12 25 -0
v -11 9 5
v -11 9 -1
v -11 14 5
v -11 14 -1
v -11 22 5
v -11 22 4
v -11 22 -0
v -11 22 -1
v -11 24 5
v -11 24 4
v -11 24 -0
v -11 24 -1
v -11 25 5
v -11 25 4
v -11 25 -0
v -11 25 -1
v -11 26 4
v -11 26 -0
v -10 8 6
v -10 8 -2
v -10 9 5
v -10 9 -1
v -10 14 6
v -10 14 5
v -10 14 4
v -10 14 -0
v -10 14 -1
v -10 14 -2
v -10 21 4
v -10 21 -0
v -10 25 5
v -10 25 4
v -10 25 -0
v -10 25 -1
v -10 26 5
v -10 26 4
v -10 26 -0
v -10 26 -1
v -9 0 7
v -9 0 5
v -9 0 -1
v -9 0 -3
v -9 1 7
v -9 1 5
v -9 1 -1
v -9 1 -3
v -9 7 7
v -9 7 -3
v -9 8 6
v -9 8 -2
v -9 13 7
v -9 13 6
v -9 13 -2
v -9 13 -3
v -9 14 5
v -9 14 4
v -9 14 -0
v -9 14 -1
v -9 22 5
v -9 22 4
v -9 22 -0
v -9 22 -1
v -8 1 7
v -8 1 5
v -8 1 -1
v -8 1 -3
v -8 7 7
v -8 7 5
v -8 7 -1
v -8 7 -3
v -8 28 5
v -8 28 4
v -8 28 -0
v -8 28 -1
v -8 29 5
v -8 29 4
v -8 29 -0
v -8 29 -1
v -7 26 5
v -7 26 4
v -7 26 -0
v -7 26 -1
v -7 28 5
v -7 28 4
v -7 28 -0
v -7 28 -1
v 5 7 7
v 5 7 6
v 5 7 -2
v 5 7 -3
v 5 8 7
v 5 8 6
v 5 8 -2
v 5 8 -3
v 6 0 7
v 6 0 5
v 6 0 -1
v 6 0 -3
v 6 1 7
v 6 1 5
v 6 1 -1
v 6 1 -3
v 6 6 7
v 6 6 5
v 6 6 -1
v 6 6 -3
v 6 7 7
v 6 7 5
v 6 7 -1
v 6 7 -3
v 7 1 7
v 7 1 5
v 7 1 -1
v 7 1 -3
v 7 6 7
v 7 6 5
v 7 6 -1
v 7 6 -3
v 8 6 5
v 8 6 4
v 8 6 -0
v 8 6 -1
v 8 7 5
v 8 7 4
v 8 7 -0
v 8 7 -1
v 9 14 4
v 9 14 -0
v 9 15 4
v 9 15 -0
v 10 15 4
v 10 15 -0
v 10 16 4
v 10 16 -0
v 11 10 3
v 11 10 1
v 11 11 3
v 11 11 1
v 12 11 4
v 12 11 3
v 12 11 1
v 12 11 -0
v 12 12 4
v 12 12 -0
v -6 0 7
v -6 0 5
v -6 0 -1
v -6 0 -3
v -6 7 7
v -6 7 5
v -6 7 -1
v -6 7 -3
v -6 28 5
v -6 28 4
v -6 28 -0
v -6 28 -1
v -6 29 5
v -6 29 4
v -6 29 -0
v -6 29 -1
v -5 7 7
v -5 7 6
v -5 7 -2
v -5 7 -3
v -5 8 7
v -5 8 6
v -5 8 -2
v -5 8 -3
v -5 14 5
v -5 14 4
v -5 14 -0
v -5 14 -1
v -5 24 4
v -5 24 -0
v -5 26 4
v -5 26 -0
v -5 28 5
v -5 28 4
v -5 28 -0
v -5 28 -1
v -4 14 4
v -4 14 -0
v -4 24 4
v -4 24 -0
v 8 10 7
v 8 10 6
v 8 10 -2
v 8 10 -3
v 8 13 7
v 8 13 6
v 8 13 5
v 8 13 -1
v 8 13 -2
v 8 13 -3
v 8 14 6
v 8 14 5
v 8 14 -1
v 8 14 -2
v 9 0 7
v 9 0 5
v 9 0 -1
v 9 0 -3
v 9 6 5
v 9 6 4
v 9 6 -0
v 9 6 -1
v 9 7 6
v 9 7 4
v 9 7 -0
v 9 7 -2
v 9 10 7
v 9 10 6
v 9 10 -2
v 9 10 -3
v 9 11 4
v 9 11 3
v 9 11 1
v 9 11 -0
v 9 12 3
v 9 12 1
v 10 7 6
v 10 7 4
v 10 7 -0
v 10 7 -2
v 10 11 4
v 10 11 3
v 10 11 1
v 10 11 -0
v 10 12 4
v 10 12 3
v 10 12 1
v 10 12 -0
v 10 13 6
v 10 13 5
v 10 13 -1
v 10 13 -2
v 10 14 5
v 10 14 4
v 10 14 -0
v 10 14 -1
v 12 14 4
v 12 14 3
v 12 14 1
v 12 14 -0
v 12 15 3
v 12 15 1
v 12 16 4
v 12 16 -0
v 13 10 3
v 13 10 1
v 13 11 4
v 13 11 3
v 13 11 1
v 13 11 -0
v 13 14 4
v 13 14 3
v 13 14 1
v 13 14 -0
v 13 15 3
v 13 15 1
v -9 0 7
v -9 1 7
v -9 7 7
v -9 13 7
v -8 1 7
v -8 7 7
v -6 0 7
v -6 7 7
v -5 7 7
v -5 8 7
v 5 7 7
v 5 8 7
v 6 0 7
v 6 1 7
v 6 6 7
v 6 7 7
v 7 1 7
v 7 6 7
v 8 10 7
v 8 13 7
v 9 0 7
v 9 10 7
v -10 8 6
v -10 14 6
v -9 8 6
v -9 13 6
v -5 7 6
v -5 8 6
v 5 7 6
v 5 8 6
v 8 10 6
v 8 13 6
v 8 14 6
v 9 7 6
v 9 10 6
v 10 7 6
v 10 13 6
v -11 9 5
v -11 14 5
v -11 22 5
v -11 24 5
v -11 25 5
v -10 9 5
v -10 14 5
v -10 24 5
v -10 25 5
v -10 26 5
v -9 14 5
v -9 22 5
v -8 28 5
v -8 29 5
v -7 26 5
v -7 28 5
v -6 28 5
v -6 29 5
v -5 14 5
v -5 28 5
v 8 13 5
v 8 14 5
v 10 13 5
v 10 14 5
v -13 21 4
v -13 23 4
v -12 23 4
v -12 25 4
v -11 22 4
v -11 24 4
v -11 25 4
v -11 26 4
v -10 14 4
v -10 21 4
v -10 25 4
v -10 26 4
v -9 14 4
v -9 22 4
v -5 14 4
v -5 24 4
v -4 14 4
v -4 24 4
v 9 14 4
v 9 15 4
v 10 12 4
v 10 14 4
v 10 15 4
v 10 16 4
v 12 11 4
v 12 12 4
v 12 14 4
v 12 16 4
v 13 11 4
v 13 14 4
v -14 21 3
v -14 23 3
v -13 21 3
v -13 23 3
v -13 24 3
v -12 23 3
v -12 24 3
v 11 10 3
v 11 11 3
v 12 11 3
v 12 14 3
v 12 15 3
v 13 10 3
v 13 11 3
v 13 14 3
v 13 15 3
v 9 11 1
v 9 12 1
v 10 11 1
v 10 12 1
v -8 28 -0
v -8 29 -0
v -7 26 -0
v -7 28 -0
v -6 28 -0
v -6 29 -0
v -5 26 -0
v -5 28 -0
v 8 6 -0
v 8 7 -0
v 9 6 -0
v 9 7 -0
v 9 11 -0
v 10 7 -0
v 10 11 -0
v -9 0 -1
v -9 1 -1
v -8 1 -1
v -8 7 -1
v -6 0 -1
v -6 7 -1
v 6 0 -1
v 6 1 -1
v 6 6 -1
v 6 7 -1
v 7 1 -1
v 7 6 -1
v 8 6 -1
v 8 7 -1
v 9 0 -1
v 9 6 -1
v -9 0 5
v -9 1 5
v -8 1 5
v -8 7 5
v -6 0 5
v -6 7 5
v 6 0 5
v 6 1 5
v 6 6 5
v 6 7 5
v 7 1 5
v 7 6 5
v 8 6 5
v 8 7 5
v 9 0 5
v 9 6 5
v -8 28 4
v -8 29 4
v -7 26 4
v -7 28 4
v -6 28 4
v -6 29 4
v -5 26 4
v -5 28 4
v 8 6 4
v 8 7 4
v 9 6 4
v 9 7 4
v 9 11 4
v 10 7 4
v 10 11 4
v 9 11 3
v 9 12 3
v 10 11 3
v 10 12 3
v -14 21 1
v -14 23 1
v -13 21 1
v -13 23 1
v -13 24 1
v -12 23 1
v -12 24 1
v 11 10 1
v 11 11 1
v 12 11 1
v 12 14 1
v 12 15 1
v 13 10 1
v 13 11 1
v 13 14 1
v 13 15 1
v -13 21 -0
v -13 23 -0
v -12 23 -0
v -12 25 -0
v -11 22 -0
v -11 24 -0
v -11 25 -0
v -11 26 -0
v -10 14 -0
v -10 21 -0
v -10 25 -0
v -10 26 -0
v -9 14 -0
v -9 22 -0
v -5 14 -0
v -5 24 -0
v -4 14 -0
v -4 24 -0
v 9 14 -0
v 9 15 -0
v 10 12 -0
v 10 14 -0
v 10 15 -0
v 10 16 -0
v 12 11 -0
v 12 12 -0
v 12 14 -0
v 12 16 -0
v 13 11 -0
v 13 14 -0
v -11 9 -1
v -11 14 -1
v -11 22 -1
v -11 24 -1
v -11 25 -1
v -10 9 -1
v -10 14 -1
v -10 24 -1
v -10 25 -1
v -10 26 -1
v -9 14 -1
v -9 22 -1
v -8 28 -1
v -8 29 -1
v -7 26 -1
v -7 28 -1
v -6 28 -1
v -6 29 -1
v -5 14 -1
v -5 28 -1
v 8 13 -1
v 8 14 -1
v 10 13 -1
v 10 14 -1
v -10 8 -2
v -10 14 -2
v -9 8 -2
v -9 13 -2
v -5 7 -2
v -5 8 -2
v 5 7 -2
v 5 8 -2
v 8 10 -2
v 8 13 -2
v 8 14 -2
v 9 7 -2
v 9 10 -2
v 10 7 -2
v 10 13 -2
v -9 0 -3
v -9 1 -3
v -9 7 -3
v -9 13 -3
v -8 1 -3
v -8 7 -3
v -6 0 -3
v -6 7 -3
v -5 7 -3
v -5 8 -3
v 5 7 -3
v 5 8 -3
v 6 0 -3
v 6 1 -3
v 6 6 -3
v 6 7 -3
v 7 1 -3
v 7 6 -3
v 8 10 -3
v 8 13 -3
v 9 0 -3
v 9 10 -3
v -9 0 7
v -6 0 7
v 6 0 7
v 9 0 7
v -9 0 5
v -6 0 5
v 6 0 5
v 9 0 5
v -9 0 -1
v -6 0 -1
v 6 0 -1
v 9 0 -1
v -9 0 -3
v -6 0 -3
v 6 0 -3
v 9 0 -3
v 6 6 7
v 7 6 7
v 6 6 5
v 7 6 5
v 8 6 5
v 9 6 5
v 8 6 4
v 9 6 4
v 8 6 -0
v 9 6 -0
v 6 6 -1
v 7 6 -1
v 8 6 -1
v 9 6 -1
v 6 6 -3
v 7 6 -3
v -9 7 7
v -8 7 7
v -6 7 7
v -5 7 7
v 5 7 7
v 6 7 7
v -5 7 6
v 5 7 6
v 9 7 6
v 10 7 6
v -8 7 5
v -6 7 5
v 6 7 5
v 8 7 5
v 8 7 4
v 9 7 4
v 10 7 4
v 8 7 -0
v 9 7 -0
v 10 7 -0
v -8 7 -1
v -6 7 -1
v 6 7 -1
v 8 7 -1
v -5 7 -2
v 5 7 -2
v 9 7 -2
v 10 7 -2
v -9 7 -3
v -8 7 -3
v -6 7 -3
v -5 7 -3
v 5 7 -3
v 6 7 -3
v -5 8 7
v 5 8 7
v -10 8 6
v -9 8 6
v -5 8 6
v 5 8 6
v -10 8 -2
v -9 8 -2
v -5 8 -2
v 5 8 -2
v -5 8 -3
v 5 8 -3
v -11 9 5
v -10 9 5
v -11 9 -1
v -10 9 -1
v 11 10 3
v 13 10 3
v 11 10 1
v 13 10 1
v 9 11 4
v 10 11 4
v 12 11 4
v 13 11 4
v 9 11 3
v 10 11 3
v 12 11 3
v 13 11 3
v 9 11 1
v 10 11 1
v 12 11 1
v 13 11 1
v 9 11 -0
v 10 11 -0
v 12 11 -0
v 13 11 -0
v 10 12 4
v 12 12 4
v 9 12 3
v 10 12 3
v 9 12 1
v 10 12 1
v 10 12 -0
v 12 12 -0
v -13 21 4
v -10 21 4
v -14 21 3
v -13 21 3
v -14 21 1
v -13 21 1
v -13 21 -0
v -10 21 -0
v -11 22 5
v -9 22 5
v -11 22 4
v -9 22 4
v -11 22 -0
v -9 22 -0
v -11 22 -1
v -9 22 -1
v -8 28 5
v -7 28 5
v -8 28 4
v -7 28 4
v -8 28 -0
v -7 28 -0
v -8 28 -1
v -7 28 -1
v -9 1 7
v -8 1 7
v 6 1 7
v 7 1 7
v -9 1 5
v -8 1 5
v 6 1 5
v 7 1 5
v -9 1 -1
v -8 1 -1
v 6 1 -1
v 7 1 -1
v -9 1 -3
v -8 1 -3
v 6 1 -3
v 7 1 -3
v 8 10 7
v 9 10 7
v 8 10 6
v 9 10 6
v 8 10 -2
v 9 10 -2
v 8 10 -3
v 9 10 -3
v 11 11 3
v 12 11 3
v 11 11 1
v 12 11 1
v -9 13 7
v 8 13 7
v -9 13 6
v 8 13 6
v 10 13 6
v 8 13 5
v 10 13 5
v 8 13 -1
v 10 13 -1
v -9 13 -2
v 8 13 -2
v 10 13 -2
v -9 13 -3
v 8 13 -3
v -10 14 6
v 8 14 6
v -11 14 5
v -10 14 5
v -9 14 5
v -5 14 5
v 8 14 5
v 10 14 5
v -10 14 4
v -9 14 4
v -5 14 4
v -4 14 4
v 9 14 4
v 10 14 4
v 12 14 4
v 13 14 4
v 12 14 3
v 13 14 3
v 12 14 1
v 13 14 1
v -10 14 -0
v -9 14 -0
v -5 14 -0
v -4 14 -0
v 9 14 -0
v 10 14 -0
v 12 14 -0
v 13 14 -0
v -11 14 -1
v -10 14 -1
v -9 14 -1
v -5 14 -1
v 8 14 -1
v 10 14 -1
v -10 14 -2
v 8 14 -2
v 9 15 4
v 10 15 4
v 12 15 3
v 13 15 3
v 12 15 1
v 13 15 1
v 9 15 -0
v 10 15 -0
v 10 16 4
v 12 16 4
v 10 16 -0
v 12 16 -0
v -13 23 4
v -12 23 4
v -14 23 3
v -13 23 3
v -12 23 3
v -14 23 1
v -13 23 1
v -12 23 1
v -13 23 -0
v -12 23 -0
v -5 24 4
v -4 24 4
v -13 24 3
v -12 24 3
v -13 24 1
v -12 24 1
v -5 24 -0
v -4 24 -0
v -11 25 5
v -10 25 5
v -12 25 4
v -11 25 4
v -10 25 4
v -12 25 -0
v -11 25 -0
v -10 25 -0
v -11 25 -1
v -10 25 -1
v -10 26 5
v -7 26 5
v -11 26 4
v -10 26 4
v -7 26 4
v -5 26 4
v -11 26 -0
v -10 26 -0
v -7 26 -0
v -5 26 -0
v -10 26 -1
v -7 26 -1
v -6 28 5
v -5 28 5
v -6 28 4
v -5 28 4
v -6 28 -0
v -5 28 -0
v -6 28 -1
v -5 28 -1
v -8 29 5
v -6 29 5
v -8 29 4
v -6 29 4
v -8 29 -0
v -6 29 -0
v -8 29 -1
v -6 29 -1

# faces
f 3/3/1 2/3/1 1/3/1
f 4/3/1 2/3/1 3/3/1
f 9/3/1 6/3/1 5/3/1
f 10/3/1 6/3/1 9/3/1
f 11/3/1 8/3/1 7/3/1
f 12/3/1 8/3/1 11/3/1
f 13/3/1 11/3/1 10/3/1
f 14/3/1 11/3/1 13/3/1
f 19/3/1 16/3/1 15/3/1
f 20/3/1 18/3/1 17/3/1
f 21/3/1 19/3/1 15/3/1
f 21/3/1 20/3/1 19/3/1
f 22/3/1 18/3/1 20/3/1
f 22/3/1 20/3/1 21/3/1
f 25/3/1 24/3/1 23/3/1
f 26/3/1 24/3/1 25/3/1
f 31/3/1 28/3/1 27/3/1
f 32/3/1 28/3/1 31/3/1
f 33/3/1 30/3/1 29/3/1
f 34/3/1 30/3/1 33/3/1
f 35/2/1 32/2/1 31/2/1
f 36/2/1 32/2/1 35/2/1
f 37/2/1 34/2/1 33/2/1
f 38/2/1 34/2/1 37/2/1
f 39/3/1 37/3/1 36/3/1
f 40/3/1 37/3/1 39/3/1
f 43/3/1 42/3/1 41/3/1
f 44/3/1 42/3/1 43/3/1
f 45/3/1 43/3/1 41/3/1
f 46/3/1 43/3/1 45/3/1
f 49/3/1 42/3/1 44/3/1
f 50/3/1 42/3/1 49/3/1
f 51/3/1 48/3/1 47/3/1
f 52/3/1 48/3/1 51/3/1
f 57/3/1 54/3/1 53/3/1
f 58/3/1 54/3/1 57/3/1
f 59/3/1 56/3/1 55/3/1
f 60/3/1 56/3/1 59/3/1
f 65/3/1 62/3/1 61/3/1
f 66/3/1 62/3/1 65/3/1
f 67/3/1 64/3/1 63/3/1
f 68/3/1 64/3/1 67/3/1
f 71/3/1 70/3/1 69/3/1
f 72/3/1 70/3/1 71/3/1
f 73/3/1 71/3/1 69/3/1
f 74/3/1 71/3/1 73/3/1
f 75/3/1 70/3/1 72/3/1
f 76/3/1 70/3/1 75/3/1
f 81/3/1 78/3/1 77/3/1
f 82/3/1 78/3/1 81/3/1
f 83/3/1 80/3/1 79/3/1
f 84/3/1 80/3/1 83/3/1
f 89/3/1 86/3/1 85/3/1
f 90/3/1 86/3/1 89/3/1
f 91/3/1 88/3/1 87/3/1
f 92/3/1 88/3/1 91/3/1
f 97/3/1 94/3/1 93/3/1
f 98/3/1 94/3/1 97/3/1
f 99/3/1 96/3/1 95/3/1
f 100/3/1 96/3/1 99/3/1
f 105/3/1 102/3/1 101/3/1
f 106/3/1 102/3/1 105/3/1
f 107/3/1 104/3/1 103/3/1
f 108/3/1 104/3/1 107/3/1
f 113/3/1 110/3/1 109/3/1
f 114/3/1 110/3/1 113/3/1
f 115/3/1 112/3/1 111/3/1
f 116/3/1 112/3/1 115/3/1
f 121/3/1 118/3/1 117/3/1
f 122/3/1 118/3/1 121/3/1
f 123/3/1 120/3/1 119/3/1
f 124/3/1 120/3/1 123/3/1
f 129/3/1 126/3/1 125/3/1
f 130/3/1 126/3/1 129/3/1
f 131/3/1 128/3/1 127/3/1
f 132/3/1 128/3/1 131/3/1
f 137/3/1 134/3/1 133/3/1
f 138/3/1 134/3/1 137/3/1
f 139/3/1 136/3/1 135/3/1
f 140/3/1 136/3/1 139/3/1
f 145/3/1 142/3/1 141/3/1
f 146/3/1 142/3/1 145/3/1
f 147/3/1 144/3/1 143/3/1
f 148/3/1 144/3/1 147/3/1
f 151/3/1 150/3/1 149/3/1
f 152/3/1 150/3/1 151/3/1
f 155/3/1 154/3/1 153/3/1
f 156/3/1 154/3/1 155/3/1
f 159/3/1 158/3/1 157/3/1
f 160/3/1 158/3/1 159/3/1
f 165/3/1 162/3/1 161/3/1
f 165/3/1 164/3/1 163/3/1
f 165/3/1 163/3/1 162/3/1
f 166/3/1 164/3/1 165/3/1
f 167/3/2 168/3/2 171/3/2
f 171/3/2 168/3/2 172/3/2
f 169/3/2 170/3/2 173/3/2
f 173/3/2 170/3/2 174/3/2
f 175/3/2 176/3/2 179/3/2
f 179/3/2 176/3/2 180/3/2
f 177/3/2 178/3/2 181/3/2
f 181/3/2 178/3/2 182/3/2
f 183/3/2 184/3/2 187/3/2
f 187/3/2 184/3/2 188/3/2
f 185/3/2 186/3/2 189/3/2
f 189/3/2 186/3/2 190/3/2
f 191/3/2 192/3/2 195/3/2
f 193/3/2 194/3/2 196/3/2
f 191/3/2 195/3/2 197/3/2
f 195/3/2 196/3/2 197/3/2
f 196/3/2 194/3/2 198/3/2
f 197/3/2 196/3/2 198/3/2
f 191/3/2 197/3/2 199/3/2
f 199/3/2 197/3/2 200/3/2
f 198/3/2 194/3/2 201/3/2
f 201/3/2 194/3/2 202/3/2
f 203/3/2 204/3/2 205/3/2
f 205/3/2 204/3/2 206/3/2
f 207/3/2 208/3/2 211/3/2
f 211/3/2 208/3/2 212/3/2
f 209/3/2 210/3/2 215/3/2
f 215/3/2 210/3/2 216/3/2
f 212/3/2 213/3/2 217/3/2
f 217/3/2 213/3/2 218/3/2
f 214/3/2 215/3/2 219/3/2
f 219/3/2 215/3/2 220/3/2
f 221/3/2 222/3/2 225/3/2
f 223/3/2 224/3/2 228/3/2
f 225/3/2 226/3/2 229/3/2
f 221/3/2 225/3/2 229/3/2
f 229/3/2 226/3/2 230/3/2
f 227/3/2 228/3/2 231/3/2
f 228/3/2 224/3/2 232/3/2
f 231/3/2 228/3/2 232/3/2
f 221/3/2 229/3/2 233/3/2
f 233/3/2 229/3/2 234/3/2
f 232/3/2 224/3/2 235/3/2
f 235/3/2 224/3/2 236/3/2
f 230/3/2 231/3/2 237/3/2
f 237/3/2 231/3/2 238/3/2
f 238/3/2 231/3/2 239/3/2
f 239/3/2 231/3/2 240/3/2
f 238/3/2 239/3/2 241/3/2
f 241/3/2 239/3/2 242/3/2
f 243/3/2 244/3/2 247/3/2
f 245/3/2 246/3/2 250/3/2
f 247/3/2 248/3/2 251/3/2
f 243/3/2 247/3/2 251/3/2
f 251/3/2 248/3/2 252/3/2
f 249/3/2 250/3/2 253/3/2
f 250/3/2 246/3/2 254/3/2
f 253/3/2 250/3/2 254/3/2
f 243/3/2 251/3/2 255/3/2
f 255/3/2 251/3/2 256/3/2
f 254/3/2 246/3/2 257/3/2
f 257/3/2 246/3/2 258/3/2
f 256/3/2 251/3/2 259/3/2
f 259/3/2 251/3/2 260/3/2
f 254/3/2 257/3/2 261/3/2
f 261/3/2 257/3/2 262/3/2
f 263/3/2 264/3/2 267/3/2
f 265/3/2 266/3/2 268/3/2
f 263/3/2 267/3/2 269/3/2
f 267/3/2 268/3/2 269/3/2
f 268/3/2 266/3/2 270/3/2
f 269/3/2 268/3/2 270/3/2
f 271/3/2 272/3/2 274/3/2
f 274/3/2 272/3/2 275/3/2
f 273/3/2 274/3/2 277/3/2
f 275/3/2 276/3/2 277/3/2
f 274/3/2 275/3/2 277/3/2
f 277/3/2 276/3/2 278/3/2
f 278/3/2 276/3/2 279/3/2
f 279/3/2 276/3/2 280/3/2
f 278/3/2 279/3/2 281/3/2
f 281/3/2 279/3/2 282/3/2
f 287/3/3 284/3/3 283/3/3
f 288/3/3 286/3/3 285/3/3
f 289/3/3 287/3/3 283/3/3
f 289/3/3 288/3/3 287/3/3
f 290/3/3 286/3/3 288/3/3
f 290/3/3 288/3/3 289/3/3
f 291/3/3 286/3/3 290/3/3
f 292/3/3 286/3/3 291/3/3
f 294/3/3 286/3/3 292/3/3
f 298/3/3 294/3/3 293/3/3
f 299/3/3 296/3/3 295/3/3
f 300/3/3 298/3/3 297/3/3
f 301/3/3 286/3/3 294/3/3
f 301/3/3 300/3/3 299/3/3
f 301/3/3 298/3/3 300/3/3
f 301/3/3 294/3/3 298/3/3
f 302/3/3 286/3/3 301/3/3
f 303/3/3 299/3/3 295/3/3
f 303/3/3 301/3/3 299/3/3
f 304/3/3 301/3/3 303/3/3
f 307/3/3 306/3/3 305/3/3
f 308/3/3 306/3/3 307/3/3
f 311/3/3 310/3/3 309/3/3
f 312/3/3 310/3/3 311/3/3
f 314/3/3 306/3/3 308/3/3
f 315/3/3 306/3/3 314/3/3
f 317/3/3 314/3/3 313/3/3
f 318/3/3 317/3/3 316/3/3
f 319/3/3 314/3/3 317/3/3
f 319/3/3 317/3/3 318/3/3
f 325/3/3 321/3/3 320/3/3
f 326/3/3 321/3/3 325/3/3
f 327/2/3 324/2/3 323/2/3
f 327/3/3 323/3/3 322/3/3
f 328/2/3 324/2/3 327/2/3
f 331/3/3 329/3/3 328/3/3
f 331/3/3 328/3/3 327/3/3
f 331/3/3 327/3/3 322/3/3
f 334/3/3 329/3/3 331/3/3
f 334/3/3 331/3/3 330/3/3
f 335/3/3 333/3/3 332/3/3
f 336/3/3 333/3/3 335/3/3
f 336/3/3 335/3/3 334/3/3
f 337/3/3 333/3/3 336/3/3
f 338/3/3 334/3/3 330/3/3
f 338/3/3 336/3/3 334/3/3
f 339/3/3 336/3/3 338/3/3
f 342/3/3 341/3/3 340/3/3
f 343/3/3 341/3/3 342/3/3
f 346/3/3 345/3/3 344/3/3
f 348/3/3 346/3/3 344/3/3
f 348/3/3 347/3/3 346/3/3
f 349/3/3 347/3/3 348/3/3
f 350/3/3 347/3/3 349/3/3
f 353/3/3 348/3/3 344/3/3
f 354/3/3 351/3/3 350/3/3
f 355/3/3 351/3/3 354/3/3
f 356/3/3 353/3/3 352/3/3
f 357/3/3 348/3/3 353/3/3
f 357/3/3 353/3/3 356/3/3
f 360/3/3 359/3/3 358/3/3
f 361/3/3 359/3/3 360/3/3
f 365/3/3 363/3/3 362/3/3
f 366/3/3 363/3/3 365/3/3
f 369/3/3 365/3/3 364/3/3
f 369/3/3 367/3/3 366/3/3
f 369/3/3 366/3/3 365/3/3
f 370/3/3 367/3/3 369/3/3
f 371/3/3 367/3/3 370/3/3
f 372/3/3 369/3/3 368/3/3
f 372/3/3 370/3/3 369/3/3
f 373/3/3 370/3/3 372/3/3
f 376/3/3 375/3/3 374/3/3
f 377/3/3 375/3/3 376/3/3
f 379/3/3 378/3/3 377/3/3
f 380/3/3 378/3/3 379/3/3
f 383/3/3 382/3/3 381/3/3
f 386/3/3 383/3/3 381/3/3
f 387/3/3 383/3/3 386/3/3
f 388/3/3 385/3/3 384/3/3
f 389/3/3 385/3/3 388/3/3
f 392/3/3 391/3/3 390/3/3
f 393/3/3 391/3/3 392/3/3
f 397/3/3 395/3/3 394/3/3
f 398/3/3 395/3/3 397/3/3
f 398/3/3 397/3/3 396/3/3
f 399/3/3 395/3/3 398/3/3
f 400/3/3 398/3/3 396/3/3
f 401/3/3 398/3/3 400/3/3
f 404/3/3 403/3/3 402/3/3
f 405/3/3 403/3/3 404/3/3
f 407/3/3 406/3/3 405/3/3
f 408/3/3 406/3/3 407/3/3
f 411/3/3 410/3/3 409/3/3
f 413/3/3 411/3/3 409/3/3
f 413/3/3 412/3/3 411/3/3
f 414/3/3 412/3/3 413/3/3
f 419/3/3 416/3/3 415/3/3
f 420/3/3 418/3/3 417/3/3
f 421/3/3 418/3/3 420/3/3
f 421/3/3 420/3/3 419/3/3
f 422/3/3 418/3/3 421/3/3
f 423/3/3 419/3/3 415/3/3
f 423/3/3 421/3/3 419/3/3
f 424/3/3 421/3/3 423/3/3
f 425/3/4 426/3/4 427/3/4
f 425/3/4 427/3/4 429/3/4
f 427/3/4 428/3/4 429/3/4
f 429/3/4 428/3/4 430/3/4
f 431/3/4 432/3/4 435/3/4
f 433/3/4 434/3/4 436/3/4
f 436/3/4 434/3/4 437/3/4
f 435/3/4 436/3/4 437/3/4
f 437/3/4 434/3/4 438/3/4
f 431/3/4 435/3/4 439/3/4
f 435/3/4 437/3/4 439/3/4
f 439/3/4 437/3/4 440/3/4
f 441/3/4 442/3/4 444/3/4
f 444/3/4 442/3/4 445/3/4
f 443/3/4 444/3/4 445/3/4
f 445/3/4 442/3/4 446/3/4
f 443/3/4 445/3/4 447/3/4
f 447/3/4 445/3/4 448/3/4
f 449/3/4 450/3/4 451/3/4
f 451/3/4 450/3/4 452/3/4
f 452/3/4 453/3/4 454/3/4
f 454/3/4 453/3/4 455/3/4
f 456/3/4 457/3/4 458/3/4
f 458/3/4 457/3/4 459/3/4
f 460/3/4 461/3/4 462/3/4
f 462/3/4 461/3/4 463/3/4
f 463/3/4 464/3/4 465/3/4
f 465/3/4 464/3/4 466/3/4
f 467/3/4 468/3/4 469/3/4
f 467/3/4 469/3/4 472/3/4
f 472/3/4 469/3/4 473/3/4
f 470/3/4 471/3/4 474/3/4
f 474/3/4 471/3/4 475/3/4
f 476/3/4 477/3/4 478/3/4
f 476/3/4 478/3/4 480/3/4
f 478/3/4 479/3/4 480/3/4
f 480/3/4 479/3/4 481/3/4
f 481/3/4 479/3/4 482/3/4
f 476/3/4 480/3/4 485/3/4
f 482/3/4 483/3/4 486/3/4
f 486/3/4 483/3/4 487/3/4
f 484/3/4 485/3/4 488/3/4
f 485/3/4 480/3/4 489/3/4
f 488/3/4 485/3/4 489/3/4
f 490/3/4 491/3/4 492/3/4
f 492/3/4 491/3/4 493/3/4
f 494/3/4 495/3/4 497/3/4
f 497/3/4 495/3/4 498/3/4
f 496/3/4 497/3/4 501/3/4
f 498/3/4 499/3/4 501/3/4
f 497/3/4 498/3/4 501/3/4
f 501/3/4 499/3/4 502/3/4
f 502/3/4 499/3/4 503/3/4
f 500/3/4 501/3/4 504/3/4
f 501/3/4 502/3/4 504/3/4
f 504/3/4 502/3/4 505/3/4
f 506/3/4 507/3/4 511/3/4
f 511/3/4 507/3/4 512/3/4
f 509/2/4 510/2/4 513/2/4
f 508/3/4 509/3/4 513/3/4
f 513/2/4 510/2/4 514/2/4
f 514/3/4 515/3/4 517/3/4
f 513/3/4 514/3/4 517/3/4
f 508/3/4 513/3/4 517/3/4
f 517/3/4 515/3/4 520/3/4
f 516/3/4 517/3/4 520/3/4
f 518/3/4 519/3/4 521/3/4
f 521/3/4 519/3/4 522/3/4
f 520/3/4 521/3/4 522/3/4
f 522/3/4 519/3/4 523/3/4
f 516/3/4 520/3/4 524/3/4
f 520/3/4 522/3/4 524/3/4
f 524/3/4 522/3/4 525/3/4
f 526/3/4 527/3/4 528/3/4
f 528/3/4 527/3/4 529/3/4
f 530/3/4 531/3/4 532/3/4
f 532/3/4 531/3/4 533/3/4
f 534/3/4 535/3/4 536/3/4
f 536/3/4 535/3/4 537/3/4
f 533/3/4 531/3/4 539/3/4
f 539/3/4 531/3/4 540/3/4
f 538/3/4 539/3/4 542/3/4
f 541/3/4 542/3/4 543/3/4
f 542/3/4 539/3/4 544/3/4
f 543/3/4 542/3/4 544/3/4
f 545/3/4 546/3/4 549/3/4
f 547/3/4 548/3/4 550/3/4
f 545/3/4 549/3/4 551/3/4
f 549/3/4 550/3/4 551/3/4
f 550/3/4 548/3/4 552/3/4
f 551/3/4 550/3/4 552/3/4
f 552/3/4 548/3/4 553/3/4
f 553/3/4 548/3/4 554/3/4
f 554/3/4 548/3/4 556/3/4
f 555/3/4 556/3/4 560/3/4
f 557/3/4 558/3/4 561/3/4
f 559/3/4 560/3/4 562/3/4
f 556/3/4 548/3/4 563/3/4
f 561/3/4 562/3/4 563/3/4
f 562/3/4 560/3/4 563/3/4
f 560/3/4 556/3/4 563/3/4
f 563/3/4 548/3/4 564/3/4
f 557/3/4 561/3/4 565/3/4
f 561/3/4 563/3/4 565/3/4
f 565/3/4 563/3/4 566/3/4
f 571/3/5 568/3/5 567/3/5
f 572/3/5 568/3/5 571/3/5
f 573/3/5 570/3/5 569/3/5
f 574/3/5 570/3/5 573/3/5
f 579/3/5 576/3/5 575/3/5
f 580/3/5 576/3/5 579/3/5
f 581/3/5 578/3/5 577/3/5
f 582/3/5 578/3/5 581/3/5
f 585/3/5 584/3/5 583/3/5
f 586/3/5 584/3/5 585/3/5
f 589/3/5 588/3/5 587/3/5
f 590/3/5 588/3/5 589/3/5
f 595/3/5 592/3/5 591/3/5
f 596/3/5 592/3/5 595/3/5
f 597/3/5 594/3/5 593/3/5
f 598/3/5 594/3/5 597/3/5
f 605/3/5 602/3/5 601/3/5
f 606/3/5 604/3/5 603/3/5
f 609/3/5 600/3/5 599/3/5
f 610/3/5 605/3/5 601/3/5
f 610/3/5 606/3/5 605/3/5
f 611/3/5 604/3/5 606/3/5
f 611/3/5 606/3/5 610/3/5
f 613/3/5 610/3/5 609/3/5
f 613/3/5 612/3/5 611/3/5
f 613/3/5 611/3/5 610/3/5
f 614/3/5 608/3/5 607/3/5
f 615/3/5 608/3/5 614/3/5
f 616/3/5 613/3/5 609/3/5
f 616/3/5 614/3/5 613/3/5
f 617/3/5 614/3/5 616/3/5
f 619/3/5 609/3/5 599/3/5
f 619/3/5 616/3/5 609/3/5
f 620/3/5 616/3/5 619/3/5
f 621/3/5 616/3/5 620/3/5
f 622/3/5 616/3/5 621/3/5
f 623/3/5 621/3/5 620/3/5
f 624/3/5 621/3/5 623/3/5
f 625/3/5 618/3/5 617/3/5
f 626/3/5 618/3/5 625/3/5
f 627/3/5 619/3/5 599/3/5
f 628/3/5 619/3/5 627/3/5
f 629/3/5 623/3/5 620/3/5
f 630/3/5 623/3/5 629/3/5
f 631/3/5 621/3/5 624/3/5
f 632/3/5 621/3/5 631/3/5
f 637/3/5 634/3/5 633/3/5
f 638/3/5 634/3/5 637/3/5
f 639/3/5 636/3/5 635/3/5
f 640/3/5 636/3/5 639/3/5
f 643/3/5 642/3/5 641/3/5
f 644/3/5 642/3/5 643/3/5
f 647/3/5 646/3/5 645/3/5
f 648/3/5 646/3/5 647/3/5
f 651/3/5 650/3/5 649/3/5
f 652/3/5 650/3/5 651/3/5
f 657/3/5 654/3/5 653/3/5
f 658/3/5 654/3/5 657/3/5
f 659/3/5 656/3/5 655/3/5
f 660/3/5 656/3/5 659/3/5
f 665/3/5 662/3/5 661/3/5
f 666/3/5 662/3/5 665/3/5
f 667/3/5 664/3/5 663/3/5
f 668/3/5 664/3/5 667/3/5
f 672/3/5 670/3/5 669/3/5
f 673/3/5 672/3/5 671/3/5
f 674/3/5 670/3/5 672/3/5
f 674/3/5 672/3/5 673/3/5
f 675/3/5 670/3/5 674/3/5
f 676/3/5 670/3/5 675/3/5
f 680/3/5 678/3/5 677/3/5
f 681/3/5 680/3/5 679/3/5
f 682/3/5 678/3/5 680/3/5
f 682/3/5 680/3/5 681/3/5
f 683/3/5 678/3/5 682/3/5
f 684/3/5 678/3/5 683/3/5
f 687/3/5 686/3/5 685/3/5
f 688/3/5 686/3/5 687/3/5
f 691/3/5 690/3/5 689/3/5
f 692/3/5 690/3/5 691/3/5
f 695/3/5 694/3/5 693/3/5
f 696/3/5 694/3/5 695/3/5
f 699/3/5 698/3/5 697/3/5
f 700/3/5 698/3/5 699/3/5
f 701/3/6 702/3/6 705/3/6
f 705/3/6 702/3/6 706/3/6
f 703/3/6 704/3/6 707/3/6
f 707/3/6 704/3/6 708/3/6
f 709/3/6 710/3/6 713/3/6
f 713/3/6 710/3/6 714/3/6
f 711/3/6 712/3/6 715/3/6
f 715/3/6 712/3/6 716/3/6
f 717/3/6 718/3/6 719/3/6
f 719/3/6 718/3/6 720/3/6
f 721/3/6 722/3/6 723/3/6
f 723/3/6 722/3/6 724/3/6
f 725/3/6 726/3/6 727/3/6
f 727/3/6 726/3/6 728/3/6
f 729/3/6 730/3/6 731/3/6
f 731/3/6 730/3/6 732/3/6
f 732/3/6 733/3/6 734/3/6
f 734/3/6 733/3/6 735/3/6
f 736/3/6 737/3/6 739/3/6
f 739/3/6 737/3/6 740/3/6
f 738/3/6 739/3/6 741/3/6
f 741/3/6 739/3/6 742/3/6
f 743/3/6 744/3/6 746/3/6
f 746/3/6 744/3/6 747/3/6
f 747/3/6 744/3/6 748/3/6
f 748/3/6 744/3/6 749/3/6
f 745/3/6 746/3/6 751/3/6
f 746/1/6 747/1/6 751/1/6
f 751/1/6 747/1/6 752/1/6
f 749/3/6 750/3/6 753/3/6
f 748/3/6 749/3/6 753/3/6
f 753/3/6 750/3/6 754/3/6
f 754/3/6 750/3/6 755/3/6
f 755/3/6 750/3/6 756/3/6
f 757/3/6 758/3/6 759/3/6
f 759/3/6 758/3/6 760/3/6
f 745/3/6 751/3/6 763/3/6
f 754/3/6 755/3/6 766/3/6
f 766/3/6 755/3/6 767/3/6
f 761/3/6 762/3/6 769/3/6
f 769/3/6 762/3/6 770/3/6
f 763/3/6 764/3/6 771/3/6
f 745/3/6 763/3/6 771/3/6
f 771/3/6 764/3/6 772/3/6
f 772/3/6 764/3/6 773/3/6
f 767/3/6 768/3/6 774/3/6
f 765/3/6 766/3/6 774/3/6
f 766/3/6 767/3/6 774/3/6
f 774/3/6 768/3/6 775/3/6
f 775/3/6 768/3/6 776/3/6
f 772/3/6 773/3/6 777/3/6
f 774/3/6 775/3/6 777/3/6
f 773/3/6 774/3/6 777/3/6
f 777/3/6 775/3/6 778/3/6
f 781/3/6 782/3/6 783/3/6
f 783/3/6 782/3/6 784/3/6
f 779/3/6 780/3/6 785/3/6
f 785/3/6 780/3/6 786/3/6
f 787/3/6 788/3/6 789/3/6
f 789/3/6 788/3/6 790/3/6
f 791/3/6 792/3/6 794/3/6
f 794/3/6 792/3/6 795/3/6
f 793/3/6 794/3/6 796/3/6
f 796/3/6 794/3/6 797/3/6
f 797/3/6 798/3/6 799/3/6
f 799/3/6 798/3/6 800/3/6
f 803/3/6 804/3/6 805/3/6
f 805/3/6 804/3/6 806/3/6
f 801/3/6 802/3/6 807/3/6
f 807/3/6 802/3/6 808/3/6
f 809/2/6 810/2/6 812/2/6
f 812/2/6 810/2/6 813/2/6
f 811/3/6 812/3/6 814/3/6
f 814/3/6 812/3/6 815/3/6
f 815/2/6 816/2/6 817/2/6
f 817/2/6 816/2/6 818/2/6
f 819/3/6 820/3/6 822/3/6
f 822/3/6 820/3/6 823/3/6
f 821/3/6 822/3/6 825/3/6
f 823/3/6 824/3/6 825/3/6
f 822/3/6 823/3/6 825/3/6
f 825/3/6 824/3/6 826/3/6
f 826/3/6 824/3/6 827/3/6
f 827/3/6 824/3/6 828/3/6
f 826/3/6 827/3/6 829/3/6
f 829/3/6 827/3/6 830/3/6
f 831/3/6 832/3/6 833/3/6
f 833/3/6 832/3/6 834/3/6
f 835/3/6 836/3/6 837/3/6
f 837/3/6 836/3/6 838/3/6
f 839/3/6 840/3/6 841/3/6
f 841/3/6 840/3/6 842/3/6
f 843/3/6 844/3/6 845/3/6
f 845/3/6 844/3/6 846/3/6
